<svg width="24" height="24" viewBox="0 0 24 24" fill="none" xmlns="http://www.w3.org/2000/svg">
<path d="M2.08 1.92999C1.94739 1.92999 1.82022 1.98267 1.72645 2.07644C1.63268 2.17021 1.58 2.29738 1.58 2.42999V22C1.58 22.1326 1.63268 22.2598 1.72645 22.3535C1.82022 22.4473 1.94739 22.5 2.08 22.5H21.65C21.7826 22.5 21.9098 22.4473 22.0036 22.3535C22.0973 22.2598 22.15 22.1326 22.15 22C22.15 21.8674 22.0973 21.7402 22.0036 21.6464C21.9098 21.5527 21.7826 21.5 21.65 21.5H2.58V2.42999C2.58 2.29738 2.52732 2.17021 2.43356 2.07644C2.33979 1.98267 2.21261 1.92999 2.08 1.92999Z" fill="white"/>
<path d="M6.08001 13.06C5.64067 13.055 5.21262 13.1992 4.86594 13.4691C4.51926 13.739 4.27447 14.1187 4.17163 14.5458C4.0688 14.973 4.11402 15.4224 4.29989 15.8205C4.48575 16.2187 4.80126 16.5419 5.19477 16.7374C5.58827 16.9328 6.03647 16.9889 6.466 16.8964C6.89554 16.804 7.28096 16.5684 7.5592 16.2284C7.83743 15.8883 7.992 15.4639 7.9976 15.0246C8.00319 14.5852 7.85949 14.157 7.59001 13.81L9.93001 10.38C10.1331 10.4489 10.3456 10.486 10.56 10.49C10.8309 10.4925 11.0992 10.4377 11.3474 10.3291C11.5956 10.2205 11.818 10.0607 12 9.86L14.08 11.34C14.048 11.4845 14.0313 11.632 14.03 11.78C14.03 12.2892 14.2323 12.7776 14.5924 13.1376C14.9524 13.4977 15.4408 13.7 15.95 13.7C16.4592 13.7 16.9476 13.4977 17.3077 13.1376C17.6677 12.7776 17.87 12.2892 17.87 11.78C17.8685 11.3456 17.7165 10.9251 17.44 10.59L19.67 7.18C20.109 7.3184 20.5833 7.29275 21.0048 7.1078C21.4263 6.92286 21.7663 6.59119 21.9617 6.17443C22.1571 5.75767 22.1945 5.28416 22.0671 4.84187C21.9396 4.39958 21.656 4.01859 21.2688 3.76969C20.8816 3.52079 20.4172 3.4209 19.9619 3.48858C19.5067 3.55627 19.0914 3.78692 18.7934 4.13769C18.4954 4.48846 18.3348 4.93549 18.3415 5.39572C18.3483 5.85595 18.5218 6.2981 18.83 6.64L16.61 10C16.3895 9.91631 16.1559 9.8723 15.92 9.87C15.6606 9.86986 15.4037 9.92204 15.1649 10.0234C14.9261 10.1248 14.7101 10.2733 14.53 10.46L12.44 9C12.4504 8.8702 12.4504 8.73979 12.44 8.61C12.4548 8.29474 12.3916 7.98071 12.2561 7.69568C12.1206 7.41065 11.917 7.16342 11.6631 6.97586C11.4093 6.78831 11.1132 6.66621 10.8009 6.62038C10.4887 6.57456 10.1699 6.60641 9.87293 6.71312C9.57591 6.81983 9.30979 6.99811 9.0981 7.23218C8.88641 7.46625 8.73568 7.7489 8.65926 8.0551C8.58284 8.36131 8.58307 8.68163 8.65995 8.98772C8.73683 9.29382 8.88797 9.57624 9.10001 9.81L6.79001 13.2C6.56472 13.1075 6.32353 13.06 6.08001 13.06V13.06ZM20.23 4.45C20.412 4.45 20.5898 4.50395 20.7411 4.60505C20.8924 4.70614 21.0103 4.84982 21.08 5.01793C21.1496 5.18604 21.1678 5.37102 21.1323 5.54948C21.0968 5.72794 21.0092 5.89187 20.8805 6.02054C20.7519 6.1492 20.588 6.23682 20.4095 6.27232C20.231 6.30782 20.046 6.2896 19.8779 6.21997C19.7098 6.15033 19.5661 6.03241 19.4651 5.88112C19.364 5.72983 19.31 5.55196 19.31 5.37C19.31 5.126 19.4069 4.89199 19.5795 4.71946C19.752 4.54693 19.986 4.45 20.23 4.45ZM15.92 10.86C16.102 10.86 16.2798 10.914 16.4311 11.015C16.5824 11.1161 16.7003 11.2598 16.77 11.4279C16.8396 11.596 16.8578 11.781 16.8223 11.9595C16.7868 12.1379 16.6992 12.3019 16.5705 12.4305C16.4419 12.5592 16.278 12.6468 16.0995 12.6823C15.921 12.7178 15.736 12.6996 15.5679 12.63C15.3998 12.5603 15.2561 12.4424 15.1551 12.2911C15.054 12.1398 15 11.962 15 11.78C15 11.536 15.0969 11.302 15.2695 11.1295C15.442 10.9569 15.676 10.86 15.92 10.86ZM10.56 7.65C10.804 7.65 11.038 7.74693 11.2105 7.91946C11.3831 8.09199 11.48 8.326 11.48 8.57C11.48 8.814 11.3831 9.048 11.2105 9.22054C11.038 9.39307 10.804 9.49 10.56 9.49C10.316 9.49 10.082 9.39307 9.90947 9.22054C9.73694 9.048 9.64001 8.814 9.64001 8.57C9.64001 8.326 9.73694 8.09199 9.90947 7.91946C10.082 7.74693 10.316 7.65 10.56 7.65ZM6.08001 15.9C5.89721 15.9 5.71856 15.8455 5.56687 15.7435C5.41517 15.6414 5.2973 15.4966 5.22829 15.3273C5.15929 15.158 5.14227 14.972 5.17942 14.793C5.21657 14.614 5.3062 14.4502 5.43687 14.3223C5.56755 14.1945 5.73334 14.1085 5.9131 14.0753C6.09286 14.0421 6.27844 14.0632 6.44616 14.1359C6.61388 14.2086 6.75613 14.3296 6.85478 14.4835C6.95342 14.6374 7.00398 14.8172 7.00001 15C6.99478 15.2405 6.89555 15.4694 6.72358 15.6376C6.55161 15.8059 6.32058 15.9001 6.08001 15.9V15.9Z" fill="white"/>
<path d="M5.58 17.69V18.36C5.58 18.4926 5.63268 18.6198 5.72645 18.7136C5.82022 18.8073 5.94739 18.86 6.08 18.86C6.21181 18.8574 6.3375 18.8039 6.43072 18.7107C6.52394 18.6175 6.57744 18.4918 6.58 18.36V17.69C6.58 17.5574 6.52732 17.4302 6.43356 17.3364C6.33979 17.2427 6.21261 17.19 6.08 17.19C5.94739 17.19 5.82022 17.2427 5.72645 17.3364C5.63268 17.4302 5.58 17.5574 5.58 17.69Z" fill="white"/>
<path d="M11.06 5.81999V5.14999C11.06 5.01739 11.0073 4.89021 10.9136 4.79644C10.8198 4.70267 10.6926 4.64999 10.56 4.64999C10.4274 4.64999 10.3002 4.70267 10.2064 4.79644C10.1127 4.89021 10.06 5.01739 10.06 5.14999V5.81999C10.06 5.9526 10.1127 6.07978 10.2064 6.17355C10.3002 6.26732 10.4274 6.31999 10.56 6.31999C10.6926 6.31999 10.8198 6.26732 10.9136 6.17355C11.0073 6.07978 11.06 5.9526 11.06 5.81999Z" fill="white"/>
<path d="M15.92 15.64C16.0518 15.6374 16.1775 15.5839 16.2707 15.4907C16.3639 15.3975 16.4174 15.2718 16.42 15.14V14.46C16.4174 14.3282 16.3639 14.2025 16.2707 14.1093C16.1775 14.0161 16.0518 13.9626 15.92 13.96C15.7874 13.96 15.6602 14.0127 15.5664 14.1064C15.4727 14.2002 15.42 14.3274 15.42 14.46V15.14C15.42 15.2726 15.4727 15.3998 15.5664 15.4935C15.6602 15.5873 15.7874 15.64 15.92 15.64Z" fill="white"/>
<path d="M20.73 2.67V2C20.73 1.86739 20.6773 1.74021 20.5835 1.64645C20.4898 1.55268 20.3626 1.5 20.23 1.5C20.0974 1.5 19.9702 1.55268 19.8764 1.64645C19.7827 1.74021 19.73 1.86739 19.73 2V2.67C19.73 2.80261 19.7827 2.92979 19.8764 3.02355C19.9702 3.11732 20.0974 3.17 20.23 3.17C20.3626 3.17 20.4898 3.11732 20.5835 3.02355C20.6773 2.92979 20.73 2.80261 20.73 2.67Z" fill="white"/>
<path d="M21.41 18.55V16.66C21.41 16.5274 21.3573 16.4002 21.2636 16.3064C21.1698 16.2127 21.0426 16.16 20.91 16.16H16C15.8674 16.16 15.7402 16.2127 15.6464 16.3064C15.5527 16.4002 15.5 16.5274 15.5 16.66V18.55C15.5 18.6826 15.5527 18.8098 15.6464 18.9036C15.7402 18.9973 15.8674 19.05 16 19.05H20.91C21.0426 19.05 21.1698 18.9973 21.2636 18.9036C21.3573 18.8098 21.41 18.6826 21.41 18.55ZM20.41 18.05H16.5V17.16H20.41V18.05Z" fill="white"/>
<path d="M16 19.67C15.8682 19.6726 15.7425 19.7261 15.6493 19.8193C15.5561 19.9125 15.5026 20.0382 15.5 20.17C15.5 20.3026 15.5527 20.4298 15.6464 20.5236C15.7402 20.6173 15.8674 20.67 16 20.67H18.91C19.0426 20.67 19.1698 20.6173 19.2636 20.5236C19.3573 20.4298 19.41 20.3026 19.41 20.17C19.4074 20.0382 19.3539 19.9125 19.2607 19.8193C19.1675 19.7261 19.0418 19.6726 18.91 19.67H16Z" fill="white"/>
</svg>
